<svg width="154" height="32" viewBox="0 0 154 32" fill="none" xmlns="http://www.w3.org/2000/svg">
    <circle cx="16" cy="16" r="16" fill="#455AF7"/>
    <path d="M45.6997 10.768H40.2517V7.72H54.4117V10.768H48.9637V25H45.6997V10.768ZM57.2143 19.432C57.3343 20.36 57.6503 21.072 58.1623 21.568C58.6823 22.064 59.3783 22.312 60.2503 22.312C60.8823 22.312 61.4263 22.172 61.8823 21.892C62.3463 21.612 62.6983 21.208 62.9383 20.68L66.2023 21.616C65.8823 22.392 65.4303 23.064 64.8463 23.632C64.2623 24.192 63.5903 24.62 62.8303 24.916C62.0703 25.212 61.2743 25.36 60.4423 25.36C59.1303 25.36 57.9623 25.076 56.9383 24.508C55.9223 23.94 55.1263 23.148 54.5503 22.132C53.9823 21.116 53.6983 19.968 53.6983 18.688C53.6983 17.296 53.9743 16.072 54.5263 15.016C55.0863 13.952 55.8623 13.132 56.8543 12.556C57.8463 11.972 58.9783 11.68 60.2503 11.68C61.4983 11.68 62.5823 11.956 63.5023 12.508C64.4223 13.06 65.1263 13.844 65.6143 14.86C66.1103 15.876 66.3583 17.068 66.3583 18.436C66.3583 18.652 66.3423 18.984 66.3103 19.432H57.2143ZM60.3943 14.512C58.6743 14.512 57.6423 15.344 57.2983 17.008H63.0103C62.8983 16.136 62.6303 15.504 62.2063 15.112C61.7903 14.712 61.1863 14.512 60.3943 14.512ZM74.0838 25.36C72.4518 25.36 71.1318 24.992 70.1238 24.256C69.1238 23.52 68.5158 22.472 68.2998 21.112L71.6358 20.608C71.7718 21.224 72.0718 21.704 72.5358 22.048C73.0078 22.384 73.6038 22.552 74.3238 22.552C74.9078 22.552 75.3598 22.44 75.6798 22.216C76.0078 21.984 76.1718 21.664 76.1718 21.256C76.1718 20.984 76.1038 20.776 75.9678 20.632C75.8398 20.48 75.5678 20.332 75.1518 20.188C74.7438 20.044 74.0438 19.84 73.0518 19.576C71.9798 19.304 71.1318 19 70.5078 18.664C69.8838 18.328 69.4318 17.928 69.1518 17.464C68.8718 17 68.7318 16.432 68.7318 15.76C68.7318 14.936 68.9438 14.216 69.3678 13.6C69.7918 12.984 70.3918 12.512 71.1678 12.184C71.9438 11.848 72.8518 11.68 73.8918 11.68C74.8998 11.68 75.7958 11.836 76.5798 12.148C77.3718 12.46 78.0078 12.908 78.4878 13.492C78.9758 14.068 79.2758 14.744 79.3878 15.52L76.0518 16.12C75.9958 15.64 75.7878 15.26 75.4278 14.98C75.0678 14.7 74.5798 14.536 73.9638 14.488L73.7118 14.476C73.1838 14.476 72.7598 14.576 72.4398 14.776C72.1278 14.976 71.9718 15.248 71.9718 15.592C71.9718 15.824 72.0518 16.016 72.2118 16.168C72.3718 16.312 72.6838 16.464 73.1478 16.624C73.6118 16.776 74.3718 16.984 75.4278 17.248C76.4198 17.504 77.2118 17.804 77.8038 18.148C78.3958 18.484 78.8278 18.888 79.0998 19.36C79.3718 19.832 79.5078 20.408 79.5078 21.088C79.5078 21.968 79.2918 22.732 78.8598 23.38C78.4278 24.02 77.8038 24.512 76.9878 24.856C76.1718 25.192 75.2038 25.36 74.0838 25.36ZM86.1768 19.312V19.996C86.1768 20.412 86.1928 20.748 86.2248 21.004C86.2568 21.26 86.3288 21.472 86.4408 21.64C86.7688 22.16 87.4168 22.42 88.3848 22.42C88.7528 22.42 89.2648 22.376 89.9208 22.288V25C89.0888 25.152 88.3128 25.228 87.5928 25.228C86.6168 25.228 85.7688 25.084 85.0488 24.796C84.3288 24.5 83.7928 24.032 83.4408 23.392C83.2248 22.992 83.0808 22.584 83.0088 22.168C82.9368 21.752 82.9008 21.26 82.9008 20.692L82.9128 19.504V14.56H80.7048V12.04H82.9128V8.44H86.1768V12.04H89.9208V14.56H86.1768V19.312ZM97.8536 7.72H101.118V21.952H108.558V25H97.8536V7.72ZM116.43 25.36C115.142 25.36 114.002 25.072 113.01 24.496C112.018 23.912 111.246 23.104 110.694 22.072C110.15 21.032 109.878 19.848 109.878 18.52C109.878 17.184 110.154 16 110.706 14.968C111.266 13.928 112.042 13.12 113.034 12.544C114.034 11.968 115.166 11.68 116.43 11.68C117.718 11.68 118.858 11.972 119.85 12.556C120.85 13.132 121.626 13.94 122.178 14.98C122.73 16.02 123.006 17.2 123.006 18.52C123.006 19.848 122.726 21.032 122.166 22.072C121.614 23.104 120.838 23.912 119.838 24.496C118.846 25.072 117.71 25.36 116.43 25.36ZM116.43 22.312C117.446 22.312 118.218 21.968 118.746 21.28C119.282 20.592 119.55 19.672 119.55 18.52C119.55 17.344 119.282 16.42 118.746 15.748C118.21 15.068 117.438 14.728 116.43 14.728C115.398 14.728 114.622 15.068 114.102 15.748C113.59 16.42 113.334 17.344 113.334 18.52C113.334 19.704 113.598 20.632 114.126 21.304C114.662 21.976 115.43 22.312 116.43 22.312ZM137.261 12.04V25.888C137.261 26.568 137.197 27.152 137.069 27.64C136.765 28.784 136.081 29.648 135.017 30.232C133.961 30.824 132.685 31.12 131.189 31.12C130.101 31.12 129.093 30.864 128.165 30.352C127.237 29.84 126.525 29.16 126.029 28.312L129.053 26.848C129.253 27.224 129.545 27.512 129.929 27.712C130.321 27.92 130.749 28.024 131.213 28.024C131.717 28.024 132.181 27.94 132.605 27.772C133.037 27.604 133.381 27.356 133.637 27.028C133.893 26.7 134.013 26.304 133.997 25.84V24.532C133.117 25.084 132.085 25.36 130.901 25.36C129.733 25.36 128.693 25.064 127.781 24.472C126.877 23.872 126.173 23.052 125.669 22.012C125.173 20.972 124.925 19.808 124.925 18.52C124.925 17.208 125.177 16.032 125.681 14.992C126.193 13.952 126.913 13.14 127.841 12.556C128.777 11.972 129.853 11.68 131.069 11.68C132.373 11.68 133.485 12.04 134.405 12.76V12.04H137.261ZM131.429 22.456C133.413 22.456 134.405 21.144 134.405 18.52C134.405 17.288 134.173 16.324 133.709 15.628C133.253 14.932 132.533 14.584 131.549 14.584C130.845 14.584 130.257 14.76 129.785 15.112C129.313 15.456 128.961 15.924 128.729 16.516C128.497 17.108 128.381 17.776 128.381 18.52C128.381 19.68 128.637 20.628 129.149 21.364C129.661 22.092 130.421 22.456 131.429 22.456ZM146.453 25.36C145.165 25.36 144.025 25.072 143.033 24.496C142.041 23.912 141.269 23.104 140.717 22.072C140.173 21.032 139.901 19.848 139.901 18.52C139.901 17.184 140.177 16 140.729 14.968C141.289 13.928 142.065 13.12 143.057 12.544C144.057 11.968 145.189 11.68 146.453 11.68C147.741 11.68 148.881 11.972 149.873 12.556C150.873 13.132 151.649 13.94 152.201 14.98C152.753 16.02 153.029 17.2 153.029 18.52C153.029 19.848 152.749 21.032 152.189 22.072C151.637 23.104 150.861 23.912 149.861 24.496C148.869 25.072 147.733 25.36 146.453 25.36ZM146.453 22.312C147.469 22.312 148.241 21.968 148.769 21.28C149.305 20.592 149.573 19.672 149.573 18.52C149.573 17.344 149.305 16.42 148.769 15.748C148.233 15.068 147.461 14.728 146.453 14.728C145.421 14.728 144.645 15.068 144.125 15.748C143.613 16.42 143.357 17.344 143.357 18.52C143.357 19.704 143.621 20.632 144.149 21.304C144.685 21.976 145.453 22.312 146.453 22.312Z" fill="white"/>
</svg>
