<svg width="20" height="20" viewBox="0 0 20 20" fill="none" xmlns="http://www.w3.org/2000/svg">
    <path d="M18.3084 15.275C18.3084 15.575 18.2417 15.8833 18.1 16.1833C17.9584 16.4833 17.775 16.7667 17.5334 17.0333C17.125 17.4833 16.675 17.8083 16.1667 18.0167C15.6667 18.225 15.125 18.3333 14.5417 18.3333C13.6917 18.3333 12.7834 18.1333 11.825 17.725C10.8667 17.3167 9.90835 16.7667 8.95835 16.075C8.00002 15.375 7.09169 14.6 6.22502 13.7417C5.36669 12.875 4.59169 11.9667 3.90002 11.0167C3.21669 10.0667 2.66669 9.11666 2.26669 8.17499C1.86669 7.22499 1.66669 6.31666 1.66669 5.44999C1.66669 4.88332 1.76669 4.34166 1.96669 3.84166C2.16669 3.33332 2.48335 2.86666 2.92502 2.44999C3.45835 1.92499 4.04169 1.66666 4.65835 1.66666C4.89169 1.66666 5.12502 1.71666 5.33335 1.81666C5.55002 1.91666 5.74169 2.06666 5.89169 2.28332L7.82502 5.00832C7.97502 5.21666 8.08335 5.40832 8.15835 5.59166C8.23335 5.76666 8.27502 5.94166 8.27502 6.09999C8.27502 6.29999 8.21669 6.49999 8.10002 6.69166C7.99169 6.88332 7.83335 7.08332 7.63335 7.28332L7.00002 7.94166C6.90835 8.03332 6.86669 8.14166 6.86669 8.27499C6.86669 8.34166 6.87502 8.39999 6.89169 8.46666C6.91669 8.53332 6.94169 8.58332 6.95835 8.63332C7.10835 8.90832 7.36669 9.26666 7.73335 9.69999C8.10835 10.1333 8.50835 10.575 8.94169 11.0167C9.39169 11.4583 9.82502 11.8667 10.2667 12.2417C10.7 12.6083 11.0584 12.8583 11.3417 13.0083C11.3834 13.025 11.4334 13.05 11.4917 13.075C11.5584 13.1 11.625 13.1083 11.7 13.1083C11.8417 13.1083 11.95 13.0583 12.0417 12.9667L12.675 12.3417C12.8834 12.1333 13.0834 11.975 13.275 11.875C13.4667 11.7583 13.6584 11.7 13.8667 11.7C14.025 11.7 14.1917 11.7333 14.375 11.8083C14.5584 11.8833 14.75 11.9917 14.9584 12.1333L17.7167 14.0917C17.9334 14.2417 18.0834 14.4167 18.175 14.625C18.2584 14.8333 18.3084 15.0417 18.3084 15.275Z" stroke="#A0AEC0" stroke-width="1.5" stroke-miterlimit="10"/>
    <path d="M15.4167 7.49998C15.4167 6.99998 15.025 6.23331 14.4417 5.60831C13.9083 5.03331 13.2 4.58331 12.5 4.58331" stroke="#A0AEC0" stroke-width="1.5" stroke-linecap="round" stroke-linejoin="round"/>
    <path d="M18.3333 7.49999C18.3333 4.27499 15.725 1.66666 12.5 1.66666" stroke="#A0AEC0" stroke-width="1.5" stroke-linecap="round" stroke-linejoin="round"/>
</svg>
